<svg viewBox="0 0 62 62" fill="none" xmlns="http://www.w3.org/2000/svg" class="AboutCompanySection__SmileSvg-i4wdob-19 lnAPII"><path d="M52.9314 9.07159C40.8376 -3.02338 21.1612 -3.02338 9.06976 9.06867C-3.02403 21.1607 -3.02286 40.8377 9.07093 52.9321C21.1612 65.0235 40.8376 65.0235 52.9302 52.9297C65.0229 40.8377 65.0223 21.1619 52.9314 9.07159ZM49.5473 49.5479C39.3206 59.7746 22.68 59.7758 12.4527 49.5491C2.22374 39.3207 2.22491 22.6783 12.4527 12.4516C22.6794 2.22557 39.3195 2.2244 49.5484 12.4528C59.7751 22.6795 59.7739 39.3219 49.5473 49.5479ZM19.4314 22.6064C19.4314 20.6048 21.0548 18.9814 23.0564 18.9814C25.0575 18.9814 26.6808 20.6042 26.6808 22.6064C26.6808 24.6092 25.0575 26.2319 23.0564 26.2319C21.0548 26.2319 19.4314 24.6092 19.4314 22.6064ZM35.8681 22.6064C35.8681 20.6048 37.4926 18.9814 39.4942 18.9814C41.4953 18.9814 43.1186 20.6042 43.1186 22.6064C43.1186 24.6092 41.4958 26.2319 39.4942 26.2319C37.4926 26.2319 35.8681 24.6092 35.8681 22.6064ZM44.438 37.453C42.1915 42.6481 36.9303 46.0048 31.0354 46.0048C25.0136 46.0048 19.7214 42.6312 17.5526 37.4097C17.1808 36.5159 17.6046 35.4894 18.4996 35.1176C18.7194 35.027 18.9474 34.9837 19.1719 34.9837C19.8594 34.9837 20.5118 35.39 20.7918 36.0652C22.4151 39.9737 26.4359 42.4979 31.0354 42.4979C35.5308 42.4979 39.5282 39.9719 41.2188 36.0611C41.6034 35.1719 42.6358 34.7621 43.5243 35.1474C44.4129 35.5326 44.8227 36.5644 44.438 37.453Z" fill="#22AA4E"></path></svg>